# xmcd
#
# Track frame offsets: 
#        150
#        12484
#        25983
#        37321
#        47935
#        58639
#        69011
#        78561
#        90663
#        98160
#        110622
#        124054
#        139732
#        156209
#        167502
#        178776
#        189652
#        211348
#        221607
#        232147
#        250059
#        263558
#        278403
#        289536
#
# Disc length: 4268 seconds
#
# Revision: 4
# Processed by: cddbd v1.5.2PL0 Copyright (c) Steve Scherf et al.
# Submitted via: ExactAudioCopy v1.1
#
DISCID=5910aa18
DTITLE=James Brown - Star Time - Disc 1
DYEAR=1991
DGENRE=R&B
TTITLE0=Please Please Please (mono)
TTITLE1=Why Do You Do Me (mono)
TTITLE2=Try Me (mono)
TTITLE3=Tell Me What I Did Wrong (mono)
TTITLE4=Bewildered (mono)
TTITLE5=Good Good Lovin' (stereo)
TTITLE6=I'll Go Crazy (stereo)
TTITLE7=I Know It's True (stereo)
TTITLE8=(Do The) Mashed Potatoes (Part 1) (mono)
TTITLE9=Think (mono)
TTITLE10=Baby, You're Right (alt) (mono)
TTITLE11=Lost Someone (stereo)
TTITLE12=Night Train (mono)
TTITLE13=I've Got Money (mono)
TTITLE14=I Don't Mind (live at the Apollo, NYC 10-24-62) (mono)
TTITLE15=Prisoner Of Love (stereo)
TTITLE16=Devil's Den (mono)
TTITLE17=Out Of The Blue (alt) (mono)
TTITLE18=Out Of Sight (mono)
TTITLE19=Grits (stereo)
TTITLE20=Maybe The Last Time (stereo)
TTITLE21=It's A Man's Man's Man's World (alt) (stereo)
TTITLE22=I Got You (I Feel Good) (Smash version) (stereo)
TTITLE23=Papa's Got A Brand New Bag (mono)
EXTD=YEAR: 1991
EXTT0=
EXTT1=
EXTT2=
EXTT3=
EXTT4=
EXTT5=
EXTT6=
EXTT7=
EXTT8=
EXTT9=
EXTT10=
EXTT11=
EXTT12=
EXTT13=
EXTT14=
EXTT15=
EXTT16=
EXTT17=
EXTT18=
EXTT19=
EXTT20=
EXTT21=
EXTT22=
EXTT23=
PLAYORDER=
